{
    "asset": {
        "generator": "Khronos glTF Blender I/O v1.7.33",
        "version": "2.0"
    },
    "scene": 0,
    "scenes": [
        {
            "extras": {
                "td": {
                    "texture_size": 4,
                    "uv_space": "2.7727 %",
                    "density": "0.162",
                    "custom_width": "48",
                    "custom_height": "48",
                    "density_set": "0.1625"
                }
            },
            "name": "Scene",
            "nodes": [4]
        }
    ],
    "nodes": [
        {
            "mesh": 0,
            "name": "lever arm",
            "rotation": [
                -9.224573993549257e-9, 3.80491051998888e-8, 0.7079445123672485,
                0.7062680721282959
            ],
            "scale": [
                0.6053969860076904, 0.10000000149011612, 0.10000000149011612
            ],
            "translation": [
                0.0001466573594370857, -8.421353116316865e-5,
                -3.307326743202943e-13
            ]
        },
        {
            "children": [0],
            "name": "lever arm bone",
            "rotation": [
                1.8758091968607005e-8, -3.43651223033703e-8,
                -0.5010262727737427, 0.86543208360672
            ],
            "scale": [0.9999999403953552, 0.9999999403953552, 1],
            "translation": [
                -2.1217278788464142e-27, 0.38313695788383484,
                2.710505431213761e-20
            ]
        },
        {
            "mesh": 1,
            "name": "base quad",
            "rotation": [0, 0, 0, 1],
            "scale": [
                0.15000000596046448, 0.5024999976158142, 0.4000000059604645
            ],
            "translation": [0, 0.3837552999611944, 0]
        },
        {
            "children": [1, 2],
            "name": "base quad bone",
            "translation": [0, -0.3829677999019623, 0]
        },
        {
            "children": [3],
            "name": "Armature"
        }
    ],
    "materials": [
        {
            "doubleSided": true,
            "emissiveFactor": [1, 1, 1],
            "emissiveTexture": {
                "index": 0
            },
            "name": "Material.002",
            "pbrMetallicRoughness": {}
        },
        {
            "doubleSided": true,
            "emissiveFactor": [1, 1, 1],
            "emissiveTexture": {
                "index": 1
            },
            "name": "Material.001",
            "pbrMetallicRoughness": {}
        }
    ],
    "meshes": [
        {
            "name": "Cube.037",
            "primitives": [
                {
                    "attributes": {
                        "POSITION": 0,
                        "NORMAL": 1,
                        "TEXCOORD_0": 2
                    },
                    "indices": 3,
                    "material": 0
                }
            ]
        },
        {
            "name": "Cube.022",
            "primitives": [
                {
                    "attributes": {
                        "POSITION": 4,
                        "NORMAL": 5,
                        "TEXCOORD_0": 6
                    },
                    "indices": 3,
                    "material": 1
                }
            ]
        }
    ],
    "textures": [
        {
            "sampler": 0,
            "source": 0
        },
        {
            "sampler": 0,
            "source": 1
        }
    ],
    "images": [
        {
            "bufferView": 4,
            "mimeType": "image/png",
            "name": "PixelTextureGrid_48"
        },
        {
            "bufferView": 8,
            "mimeType": "image/png",
            "name": "PixelTextureGrid_48"
        }
    ],
    "accessors": [
        {
            "bufferView": 0,
            "componentType": 5126,
            "count": 24,
            "max": [2, 0.9999923706054688, 1],
            "min": [0, -1.0000076293945312, -1],
            "type": "VEC3"
        },
        {
            "bufferView": 1,
            "componentType": 5126,
            "count": 24,
            "type": "VEC3"
        },
        {
            "bufferView": 2,
            "componentType": 5126,
            "count": 24,
            "type": "VEC2"
        },
        {
            "bufferView": 3,
            "componentType": 5123,
            "count": 36,
            "type": "SCALAR"
        },
        {
            "bufferView": 5,
            "componentType": 5126,
            "count": 24,
            "max": [1, 1, 1],
            "min": [-1, -1, -1],
            "type": "VEC3"
        },
        {
            "bufferView": 6,
            "componentType": 5126,
            "count": 24,
            "type": "VEC3"
        },
        {
            "bufferView": 7,
            "componentType": 5126,
            "count": 24,
            "type": "VEC2"
        }
    ],
    "bufferViews": [
        {
            "buffer": 0,
            "byteLength": 288,
            "byteOffset": 0
        },
        {
            "buffer": 0,
            "byteLength": 288,
            "byteOffset": 288
        },
        {
            "buffer": 0,
            "byteLength": 192,
            "byteOffset": 576
        },
        {
            "buffer": 0,
            "byteLength": 72,
            "byteOffset": 768
        },
        {
            "buffer": 0,
            "byteLength": 3036,
            "byteOffset": 840
        },
        {
            "buffer": 0,
            "byteLength": 288,
            "byteOffset": 3876
        },
        {
            "buffer": 0,
            "byteLength": 288,
            "byteOffset": 4164
        },
        {
            "buffer": 0,
            "byteLength": 192,
            "byteOffset": 4452
        },
        {
            "buffer": 0,
            "byteLength": 4158,
            "byteOffset": 4644
        }
    ],
    "samplers": [
        {
            "magFilter": 9728,
            "minFilter": 9984
        }
    ],
    "buffers": [
        {
            "byteLength": 8804,
            "uri": "data:application/octet-stream;base64,"
        }
    ]
}
