<svg width="27" height="22" viewBox="0 0 27 22" fill="none" xmlns="http://www.w3.org/2000/svg">
<path d="M25.6875 0.716798H18.9844C17.5459 0.716798 16.1396 1.12988 14.9297 1.90918L13.5 2.82618L12.0703 1.90918C10.8616 1.13003 9.45374 0.716029 8.01562 0.716798H1.3125C0.793945 0.716798 0.375 1.13574 0.375 1.6543V18.2949C0.375 18.8135 0.793945 19.2325 1.3125 19.2325H8.01562C9.4541 19.2325 10.8604 19.6455 12.0703 20.4248L13.3711 21.2627C13.4092 21.2862 13.4531 21.3008 13.4971 21.3008C13.541 21.3008 13.585 21.2891 13.623 21.2627L14.9238 20.4248C16.1367 19.6455 17.5459 19.2325 18.9844 19.2325H25.6875C26.2061 19.2325 26.625 18.8135 26.625 18.2949V1.6543C26.625 1.13574 26.2061 0.716798 25.6875 0.716798ZM10.3359 12.2158C10.3359 12.336 10.2422 12.4356 10.1279 12.4356H4.68457C4.57031 12.4356 4.47656 12.336 4.47656 12.2158V10.8975C4.47656 10.7774 4.57031 10.6777 4.68457 10.6777H10.125C10.2393 10.6777 10.333 10.7774 10.333 10.8975V12.2158H10.3359ZM10.3359 8.11427C10.3359 8.23439 10.2422 8.334 10.1279 8.334H4.68457C4.57031 8.334 4.47656 8.23439 4.47656 8.11427V6.79591C4.47656 6.67579 4.57031 6.57618 4.68457 6.57618H10.125C10.2393 6.57618 10.333 6.67579 10.333 6.79591V8.11427H10.3359ZM22.5234 12.2158C22.5234 12.336 22.4297 12.4356 22.3154 12.4356H16.8721C16.7578 12.4356 16.6641 12.336 16.6641 12.2158V10.8975C16.6641 10.7774 16.7578 10.6777 16.8721 10.6777H22.3125C22.4268 10.6777 22.5205 10.7774 22.5205 10.8975V12.2158H22.5234ZM22.5234 8.11427C22.5234 8.23439 22.4297 8.334 22.3154 8.334H16.8721C16.7578 8.334 16.6641 8.23439 16.6641 8.11427V6.79591C16.6641 6.67579 16.7578 6.57618 16.8721 6.57618H22.3125C22.4268 6.57618 22.5205 6.67579 22.5205 6.79591V8.11427H22.5234Z" fill="white"/>
</svg>
