<svg width="20" height="19" viewBox="0 0 20 19" fill="none" xmlns="http://www.w3.org/2000/svg">
<path d="M19.3749 0.437531H0.624998C0.459238 0.437531 0.300267 0.503378 0.183058 0.620588C0.0658478 0.737798 0 0.896769 0 1.06253V2.10627C0.000116863 2.25389 0.0294462 2.40002 0.0862977 2.53625C0.143149 2.67248 0.226399 2.79611 0.331249 2.90002L7.49997 10.175V16.55L8.74997 17.025V9.8125C8.75045 9.73024 8.73468 9.64871 8.70358 9.57256C8.67247 9.49641 8.62665 9.42715 8.56872 9.36875L1.25 2.05628V1.68753H18.7499V2.06878L11.4562 9.36875C11.3938 9.42504 11.3433 9.49335 11.3079 9.5696C11.2724 9.64585 11.2527 9.72846 11.25 9.8125V18.0687L12.5 18.5625V10.125L19.6687 2.93752C19.7752 2.83098 19.8594 2.70422 19.9163 2.5647C19.9732 2.42517 20.0016 2.27569 19.9999 2.12502V1.06253C19.9999 0.896769 19.9341 0.737798 19.8169 0.620588C19.6997 0.503378 19.5407 0.437531 19.3749 0.437531Z" fill="#F6F6F6"/>
</svg>
