<svg width="21" height="20" viewBox="0 0 21 20" fill="none" xmlns="http://www.w3.org/2000/svg">
<path d="M20.3652 9.32022L9.75281 0.10955C9.67135 0.0393257 9.56742 0 9.45786 0H6.97191C6.76405 0 6.66854 0.258427 6.82584 0.393258L16.6629 8.93258H0.224719C0.101124 8.93258 0 9.03371 0 9.1573V10.8427C0 10.9663 0.101124 11.0674 0.224719 11.0674H16.6601L6.82303 19.6067C6.66573 19.7444 6.76124 20 6.9691 20H9.53933C9.5927 20 9.64607 19.9803 9.68539 19.9438L20.3652 10.6798C20.4624 10.5952 20.5404 10.4908 20.5938 10.3735C20.6472 10.2562 20.6749 10.1289 20.6749 10C20.6749 9.87113 20.6472 9.74376 20.5938 9.6265C20.5404 9.50923 20.4624 9.40479 20.3652 9.32022Z" fill="white"/>
</svg>
