<svg width="20" height="21" viewBox="0 0 20 21" fill="none" xmlns="http://www.w3.org/2000/svg">
<path d="M17.023 15.946C16.5546 15.4974 16.0988 15.0359 15.656 14.562C15.284 14.184 15.06 13.909 15.06 13.909L12.26 12.572C13.381 11.3006 13.9997 9.66398 14 7.96899C14 4.10999 10.86 0.968994 7 0.968994C3.14 0.968994 0 4.10999 0 7.96899C0 11.828 3.14 14.969 7 14.969C8.763 14.969 10.37 14.309 11.603 13.23L12.94 16.03C12.94 16.03 13.215 16.254 13.593 16.626C13.98 16.989 14.489 17.48 14.977 17.993L16.335 19.385L16.939 20.031L19.06 17.91L18.414 17.306C18.035 16.934 17.529 16.44 17.023 15.946ZM7 12.969C4.243 12.969 2 10.726 2 7.96899C2 5.21199 4.243 2.96899 7 2.96899C9.757 2.96899 12 5.21199 12 7.96899C12 10.726 9.757 12.969 7 12.969Z" fill="white"/>
</svg>
