<svg width="52" height="50" viewBox="0 0 52 50" fill="white" xmlns="http://www.w3.org/2000/svg">
<path d="M17.4068 40.2599C17.4068 40.4667 17.169 40.6321 16.8692 40.6321C16.528 40.6631 16.2902 40.4977 16.2902 40.2599C16.2902 40.0531 16.528 39.8877 16.8278 39.8877C17.138 39.8567 17.4068 40.0221 17.4068 40.2599ZM14.1914 39.7947C14.119 40.0014 14.3258 40.2392 14.636 40.3013C14.9048 40.4047 15.2149 40.3013 15.277 40.0945C15.339 39.8877 15.1426 39.6499 14.8324 39.5569C14.5636 39.4845 14.2638 39.5879 14.1914 39.7947ZM18.7612 39.6189C18.4614 39.6913 18.2546 39.8877 18.2856 40.1255C18.3166 40.3323 18.5854 40.4667 18.8956 40.3943C19.1954 40.322 19.4022 40.1255 19.3712 39.9187C19.3402 39.7223 19.061 39.5879 18.7612 39.6189ZM25.5642 0C11.2241 0 0.254456 10.8869 0.254456 25.2271C0.254456 36.693 7.47105 46.5047 17.779 49.9579C19.1024 50.1957 19.5676 49.3789 19.5676 48.7069C19.5676 48.0658 19.5366 44.5299 19.5366 42.3587C19.5366 42.3587 12.2993 43.9096 10.7795 39.2777C10.7795 39.2777 9.60088 36.2691 7.90529 35.4937C7.90529 35.4937 5.53767 33.8704 8.07071 33.9015C8.07071 33.9015 10.6451 34.1082 12.0616 36.5689C14.3258 40.5598 18.1202 39.4121 19.5987 38.7298C19.8365 37.0755 20.5085 35.9279 21.2529 35.2455C15.4734 34.6045 9.64224 33.7671 9.64224 23.821C9.64224 20.9778 10.428 19.551 12.0822 17.7313C11.8134 17.0593 10.9346 14.2884 12.351 10.7112C14.5119 10.0391 19.4849 13.5027 19.4849 13.5027C21.5527 12.9237 23.7756 12.6239 25.9778 12.6239C28.18 12.6239 30.4029 12.9237 32.4707 13.5027C32.4707 13.5027 37.4437 10.0288 39.6046 10.7112C41.021 14.2988 40.1422 17.0593 39.8734 17.7313C41.5276 19.5613 42.5408 20.9881 42.5408 23.821C42.5408 33.7981 36.4512 34.5942 30.6717 35.2455C31.6229 36.0623 32.4293 37.6131 32.4293 40.0428C32.4293 43.527 32.3983 47.8384 32.3983 48.6862C32.3983 49.3582 32.8739 50.175 34.1869 49.9372C44.5259 46.5047 51.5357 36.693 51.5357 25.2271C51.5357 10.8869 39.9044 0 25.5642 0ZM10.3039 35.6591C10.1695 35.7625 10.2005 36.0003 10.3763 36.1967C10.5417 36.3621 10.7795 36.4345 10.9139 36.3001C11.0483 36.1967 11.0173 35.9589 10.8416 35.7625C10.6761 35.5971 10.4383 35.5247 10.3039 35.6591ZM9.18732 34.8216C9.11495 34.956 9.21834 35.1215 9.42512 35.2249C9.59054 35.3282 9.79732 35.2972 9.86969 35.1525C9.94207 35.0181 9.83868 34.8526 9.6319 34.7493C9.42512 34.6872 9.25969 34.7182 9.18732 34.8216ZM12.5371 38.5023C12.3717 38.6367 12.4338 38.9469 12.6716 39.1433C12.9093 39.3811 13.2092 39.4121 13.3436 39.2467C13.478 39.1123 13.416 38.8021 13.2092 38.6057C12.9817 38.3679 12.6716 38.3369 12.5371 38.5023ZM11.3585 36.9825C11.1931 37.0859 11.1931 37.3547 11.3585 37.5925C11.5239 37.8303 11.8031 37.9337 11.9375 37.8303C12.1029 37.6959 12.1029 37.427 11.9375 37.1893C11.7927 36.9515 11.5239 36.8481 11.3585 36.9825Z" fill="white"/>
</svg>
