<svg width="51" height="50" viewBox="0 0 51 50" fill="none" xmlns="http://www.w3.org/2000/svg">
<path d="M25.3206 12.1806C18.2263 12.1806 12.5041 17.9042 12.5041 25C12.5041 32.0958 18.2263 37.8194 25.3206 37.8194C32.4148 37.8194 38.1371 32.0958 38.1371 25C38.1371 17.9042 32.4148 12.1806 25.3206 12.1806ZM25.3206 33.3343C20.7361 33.3343 16.9882 29.5967 16.9882 25C16.9882 20.4033 20.7249 16.6657 25.3206 16.6657C29.9162 16.6657 33.653 20.4033 33.653 25C33.653 29.5967 29.9051 33.3343 25.3206 33.3343V33.3343ZM41.6508 11.6563C41.6508 13.3186 40.3122 14.6463 38.6614 14.6463C36.9993 14.6463 35.6719 13.3075 35.6719 11.6563C35.6719 10.005 37.0105 8.66618 38.6614 8.66618C40.3122 8.66618 41.6508 10.005 41.6508 11.6563ZM50.1393 14.691C49.9497 10.6856 49.035 7.13768 46.1014 4.21455C43.1789 1.29142 39.6318 0.376548 35.6273 0.175722C31.5002 -0.0585741 19.1298 -0.0585741 15.0027 0.175722C11.0094 0.365391 7.46224 1.28026 4.52861 4.20339C1.59498 7.12652 0.691466 10.6744 0.490686 14.6798C0.256441 18.8079 0.256441 31.181 0.490686 35.309C0.680312 39.3144 1.59498 42.8623 4.52861 45.7855C7.46224 48.7086 10.9982 49.6235 15.0027 49.8243C19.1298 50.0586 31.5002 50.0586 35.6273 49.8243C39.6318 49.6346 43.1789 48.7197 46.1014 45.7855C49.0239 42.8623 49.9385 39.3144 50.1393 35.309C50.3736 31.181 50.3736 18.819 50.1393 14.691V14.691ZM44.8075 39.7384C43.9374 41.9251 42.2531 43.6098 40.0557 44.4912C36.7651 45.7966 28.9569 45.4954 25.3206 45.4954C21.6842 45.4954 13.8649 45.7855 10.5855 44.4912C8.39922 43.621 6.71489 41.9363 5.83369 39.7384C4.52861 36.4471 4.82978 28.6372 4.82978 25C4.82978 21.3628 4.53977 13.5418 5.83369 10.2616C6.70374 8.07486 8.38806 6.39016 10.5855 5.50876C13.8761 4.20339 21.6842 4.50463 25.3206 4.50463C28.9569 4.50463 36.7762 4.21455 40.0557 5.50876C42.2419 6.379 43.9263 8.06371 44.8075 10.2616C46.1125 13.5529 45.8114 21.3628 45.8114 25C45.8114 28.6372 46.1125 36.4582 44.8075 39.7384Z" fill="white"/>
</svg>
